M48
INCH,TZ
T1C0.0157
T2C0.0197
T3C0.0362
T4C0.0540
T5C0.0906
%
G90
G05
T1
X21102Y-28268
X21181Y-24567
X21496Y-31732
X22540Y-22756
X23150Y-23622
X23622Y-24488
X23937Y-30551
X24094Y-47323
X24646Y-21024
X25118Y-28819
X25433Y-21811
X25669Y-30551
X26220Y-16535
X26614Y-27087
X26772Y-26220
X27402Y-26378
X28189Y-27717
X28268Y-22598
X28425Y-21969
X28888Y-20939
X28976Y-34961
X29055Y-24724
X29291Y-20551
X29291Y-25827
X29449Y-21654
X29606Y-18976
X29843Y-27717
X30157Y-20472
X30157Y-21339
X30157Y-24724
X30315Y-28110
X30787Y-31969
X31102Y-24961
X31102Y-33780
X31181Y-30079
X31260Y-25591
X31339Y-35827
X31496Y-22677
X32283Y-15906
X32283Y-35906
X32362Y-32598
X32362Y-33071
X32835Y-32205
X32913Y-34252
X33071Y-35827
X33130Y-32992
X33228Y-20394
X33228Y-21575
X33307Y-23307
X33307Y-26772
X33386Y-15748
X33386Y-35433
X33642Y-29528
X33858Y-32677
X33858Y-35906
X33937Y-23465
X34803Y-29685
X35591Y-19055
X36693Y-18898
X37559Y-21024
X38031Y-29606
X38504Y-27323
X38583Y-32835
X38583Y-35748
X38780Y-36555
X38878Y-37638
X38898Y-20945
X38976Y-35197
X39213Y-36142
X39291Y-28898
X39370Y-24803
X39370Y-34724
X39606Y-26220
X39685Y-27480
X40079Y-22913
X40157Y-27087
X40236Y-30630
X40315Y-21654
X40472Y-28583
X40709Y-27795
X40709Y-30945
X40945Y-21732
X41024Y-23701
X41024Y-33307
X41102Y-34646
X41181Y-29370
X41181Y-35197
X41260Y-27480
X41496Y-40787
X41575Y-31024
X41811Y-32677
X41969Y-26850
X41969Y-29449
X42047Y-21732
X42047Y-23543
X42283Y-31181
X42441Y-36772
X42441Y-38031
X42441Y-40472
X42992Y-33858
X42992Y-37559
X42992Y-38740
X43150Y-26929
X43150Y-29055
X43386Y-36378
X43465Y-38740
X43701Y-29921
X43780Y-31496
X43780Y-33701
X44094Y-21417
X44252Y-26614
X44252Y-41654
X44409Y-36378
X44567Y-20394
X44646Y-16535
X45197Y-31496
X45197Y-41417
X45276Y-23228
X45433Y-35669
X45939Y-24173
X46063Y-22362
X46063Y-25591
X46142Y-30472
X46142Y-35039
X46142Y-37244
X46299Y-24961
X46378Y-20394
X47008Y-30709
X47244Y-35276
X47244Y-40472
X48189Y-26929
X48189Y-28740
X48268Y-17008
X49606Y-30472
X50079Y-44724
X50551Y-36929
X50630Y-45591
X50709Y-24173
X51732Y-45591
X52441Y-45906
X52992Y-31102
X53228Y-39921
X53307Y-36535
X53386Y-41024
X53622Y-35906
X53622Y-45906
X53701Y-40394
X54016Y-23622
T2
X19685Y-19843
X21260Y-29134
X21260Y-30709
X26457Y-27638
X26772Y-44331
X26772Y-47165
X27008Y-21205
X27008Y-22205
X27008Y-23205
X27559Y-27638
X28189Y-20945
X29000Y-23858
X29134Y-15591
X29268Y-44331
X29268Y-47331
X30000Y-22000
X30000Y-23858
X30709Y-18661
X30945Y-15591
X31000Y-22000
X31000Y-23858
X32000Y-22000
X32268Y-44331
X32268Y-47331
X33000Y-22000
X34000Y-22000
X35087Y-21732
X35268Y-44331
X35268Y-47331
X36087Y-21732
X37087Y-21732
X38087Y-21732
X38268Y-44331
X38268Y-47331
X39087Y-21732
X42441Y-46693
X43780Y-46693
X45039Y-46693
X46220Y-46693
X47480Y-46693
X48661Y-46693
X49213Y-44173
X50283Y-46850
X51283Y-46850
X52283Y-46850
X53283Y-46850
X54283Y-46850
X56197Y-19962
X56197Y-20962
X56197Y-21962
X56197Y-22962
X56197Y-23962
X56220Y-25237
X56220Y-26237
X56220Y-27237
X56220Y-28237
X56220Y-29237
X56220Y-30670
X56220Y-31670
X56220Y-32670
X56220Y-33670
X56220Y-34670
X56220Y-36182
X56220Y-37182
X56220Y-38182
X56220Y-39182
X56220Y-40182
X56220Y-41807
X56220Y-42807
X56220Y-43807
X56220Y-44807
X56220Y-45807
T3
X22316Y-37697
X22316Y-38681
X23576Y-37697
X23576Y-38681
T4
X21496Y-19811
X21496Y-20811
X21496Y-21811
X24488Y-16346
X24488Y-17346
X24488Y-18346
T5
X22509Y-35819
X22509Y-40559
T0
M30
