%TF.GenerationSoftware,KiCad,Pcbnew,(6.0.2)*%
%TF.CreationDate,2023-01-31T11:03:36+01:00*%
%TF.ProjectId,schematic,73636865-6d61-4746-9963-2e6b69636164,rev?*%
%TF.SameCoordinates,Original*%
%TF.FileFunction,Paste,Top*%
%TF.FilePolarity,Positive*%
%FSLAX46Y46*%
G04 Gerber Fmt 4.6, Leading zero omitted, Abs format (unit mm)*
G04 Created by KiCad (PCBNEW (6.0.2)) date 2023-01-31 11:03:36*
%MOMM*%
%LPD*%
G01*
G04 APERTURE LIST*
%ADD10R,1.112000X1.447800*%
%ADD11R,2.184400X0.558800*%
%ADD12R,1.320800X0.355600*%
%ADD13R,0.304800X0.972299*%
%ADD14R,1.397000X0.758800*%
%ADD15R,1.447800X1.112000*%
%ADD16R,0.450000X1.750000*%
%ADD17R,0.758800X1.397000*%
%ADD18R,1.899999X0.599999*%
%ADD19R,1.759699X0.558000*%
%ADD20R,0.609600X4.111599*%
G04 APERTURE END LIST*
D10*
%TO.C,C22*%
X136698900Y-113800000D03*
X134901100Y-113800000D03*
%TD*%
%TO.C,C17*%
X117741100Y-92220000D03*
X119538900Y-92220000D03*
%TD*%
D11*
%TO.C,U14*%
X128574500Y-50435100D03*
X128574500Y-51705100D03*
X128574500Y-52975100D03*
X128574500Y-54245100D03*
X128574500Y-55515100D03*
X128574500Y-56785100D03*
X128574500Y-58055100D03*
X128574500Y-59325100D03*
X133298900Y-59325100D03*
X133298900Y-58055100D03*
X133298900Y-56785100D03*
X133298900Y-55515100D03*
X133298900Y-54245100D03*
X133298900Y-52975100D03*
X133298900Y-51705100D03*
X133298900Y-50435100D03*
%TD*%
D10*
%TO.C,C18*%
X117341100Y-105380000D03*
X119138900Y-105380000D03*
%TD*%
%TO.C,C21*%
X135898900Y-95000000D03*
X134101100Y-95000000D03*
%TD*%
D12*
%TO.C,U9*%
X113204400Y-56275000D03*
X113204400Y-56925001D03*
X113204400Y-57574999D03*
X113204400Y-58225001D03*
X113204400Y-58874999D03*
X113204400Y-59524998D03*
X113204400Y-60174999D03*
X113204400Y-60824998D03*
X113204400Y-61474999D03*
X113204400Y-62124998D03*
X118995600Y-62125000D03*
X118995600Y-61475002D03*
X118995600Y-60825001D03*
X118995600Y-60175002D03*
X118995600Y-59525001D03*
X118995600Y-58875002D03*
X118995600Y-58225001D03*
X118995600Y-57575002D03*
X118995600Y-56925001D03*
X118995600Y-56275002D03*
%TD*%
D13*
%TO.C,U7*%
X81849559Y-88540251D03*
X82349685Y-88540251D03*
X82849811Y-88540251D03*
X83349937Y-88540251D03*
X83850063Y-88540251D03*
X84350189Y-88540251D03*
X84850315Y-88540251D03*
X85350441Y-88540251D03*
X85350441Y-85459749D03*
X84850315Y-85459749D03*
X84350189Y-85459749D03*
X83850063Y-85459749D03*
X83349937Y-85459749D03*
X82849811Y-85459749D03*
X82349685Y-85459749D03*
X81849559Y-85459749D03*
%TD*%
D14*
%TO.C,R1*%
X78740000Y-49899900D03*
X78740000Y-51700100D03*
%TD*%
D12*
%TO.C,U11*%
X113204400Y-81675000D03*
X113204400Y-82325001D03*
X113204400Y-82974999D03*
X113204400Y-83625001D03*
X113204400Y-84274999D03*
X113204400Y-84924998D03*
X113204400Y-85574999D03*
X113204400Y-86224998D03*
X113204400Y-86874999D03*
X113204400Y-87524998D03*
X118995600Y-87525000D03*
X118995600Y-86875002D03*
X118995600Y-86225001D03*
X118995600Y-85575002D03*
X118995600Y-84925001D03*
X118995600Y-84275002D03*
X118995600Y-83625001D03*
X118995600Y-82975002D03*
X118995600Y-82325001D03*
X118995600Y-81675002D03*
%TD*%
D15*
%TO.C,C3*%
X66400000Y-75698900D03*
X66400000Y-73901100D03*
%TD*%
D16*
%TO.C,U5*%
X64425000Y-64000000D03*
X63775000Y-64000000D03*
X63125000Y-64000000D03*
X62475000Y-64000000D03*
X61825000Y-64000000D03*
X61175000Y-64000000D03*
X60525000Y-64000000D03*
X59875000Y-64000000D03*
X59225000Y-64000000D03*
X58575000Y-64000000D03*
X57925000Y-64000000D03*
X57275000Y-64000000D03*
X56625000Y-64000000D03*
X55975000Y-64000000D03*
X55975000Y-71200000D03*
X56625000Y-71200000D03*
X57275000Y-71200000D03*
X57925000Y-71200000D03*
X58575000Y-71200000D03*
X59225000Y-71200000D03*
X59875000Y-71200000D03*
X60525000Y-71200000D03*
X61175000Y-71200000D03*
X61825000Y-71200000D03*
X62475000Y-71200000D03*
X63125000Y-71200000D03*
X63775000Y-71200000D03*
X64425000Y-71200000D03*
%TD*%
D17*
%TO.C,R7*%
X73674400Y-57800000D03*
X75474600Y-57800000D03*
%TD*%
D14*
%TO.C,R9*%
X91440000Y-51700100D03*
X91440000Y-49899900D03*
%TD*%
D15*
%TO.C,C7*%
X65400000Y-51802200D03*
X65400000Y-53600000D03*
%TD*%
D14*
%TO.C,R8*%
X93980000Y-51700100D03*
X93980000Y-49899900D03*
%TD*%
D10*
%TO.C,C10*%
X92952200Y-100850000D03*
X94750000Y-100850000D03*
%TD*%
D15*
%TO.C,C12*%
X94600000Y-74898900D03*
X94600000Y-73101100D03*
%TD*%
%TO.C,C13*%
X75000000Y-88122200D03*
X75000000Y-86324400D03*
%TD*%
D11*
%TO.C,U16*%
X128574500Y-83455100D03*
X128574500Y-84725100D03*
X128574500Y-85995100D03*
X128574500Y-87265100D03*
X128574500Y-88535100D03*
X128574500Y-89805100D03*
X128574500Y-91075100D03*
X128574500Y-92345100D03*
X133298900Y-92345100D03*
X133298900Y-91075100D03*
X133298900Y-89805100D03*
X133298900Y-88535100D03*
X133298900Y-87265100D03*
X133298900Y-85995100D03*
X133298900Y-84725100D03*
X133298900Y-83455100D03*
%TD*%
D10*
%TO.C,C14*%
X120898900Y-42200000D03*
X119101100Y-42200000D03*
%TD*%
D14*
%TO.C,R11*%
X79800000Y-115400200D03*
X79800000Y-113600000D03*
%TD*%
D12*
%TO.C,U10*%
X113204400Y-68975000D03*
X113204400Y-69625001D03*
X113204400Y-70274999D03*
X113204400Y-70925001D03*
X113204400Y-71574999D03*
X113204400Y-72224998D03*
X113204400Y-72874999D03*
X113204400Y-73524998D03*
X113204400Y-74174999D03*
X113204400Y-74824998D03*
X118995600Y-74825000D03*
X118995600Y-74175002D03*
X118995600Y-73525001D03*
X118995600Y-72875002D03*
X118995600Y-72225001D03*
X118995600Y-71575002D03*
X118995600Y-70925001D03*
X118995600Y-70275002D03*
X118995600Y-69625001D03*
X118995600Y-68975002D03*
%TD*%
D15*
%TO.C,C4*%
X66400000Y-80477800D03*
X66400000Y-82275600D03*
%TD*%
D18*
%TO.C,U6*%
X102250001Y-96985000D03*
X102250001Y-95715000D03*
X102250001Y-94445000D03*
X102250001Y-93175000D03*
X102250001Y-91905000D03*
X102250001Y-90635000D03*
X102250001Y-89365000D03*
X102250001Y-88095000D03*
X102250001Y-86825000D03*
X102250001Y-85555000D03*
X102250001Y-84285000D03*
X102250001Y-83015000D03*
X92750002Y-83015000D03*
X92750002Y-84285000D03*
X92750002Y-85555000D03*
X92750002Y-86825000D03*
X92750002Y-88095000D03*
X92750002Y-89365000D03*
X92750002Y-90635000D03*
X92750002Y-91905000D03*
X92750002Y-93175000D03*
X92750002Y-94445000D03*
X92750002Y-95715000D03*
X92750002Y-96985000D03*
%TD*%
D15*
%TO.C,C1*%
X60400000Y-51800000D03*
X60400000Y-53597800D03*
%TD*%
D10*
%TO.C,C20*%
X134098900Y-80800000D03*
X132301100Y-80800000D03*
%TD*%
D17*
%TO.C,R4*%
X56325600Y-60800000D03*
X54525400Y-60800000D03*
%TD*%
D12*
%TO.C,U13*%
X113204400Y-107075000D03*
X113204400Y-107725001D03*
X113204400Y-108374999D03*
X113204400Y-109025001D03*
X113204400Y-109674999D03*
X113204400Y-110324998D03*
X113204400Y-110974999D03*
X113204400Y-111624998D03*
X113204400Y-112274999D03*
X113204400Y-112924998D03*
X118995600Y-112925000D03*
X118995600Y-112275002D03*
X118995600Y-111625001D03*
X118995600Y-110975002D03*
X118995600Y-110325001D03*
X118995600Y-109675002D03*
X118995600Y-109025001D03*
X118995600Y-108375002D03*
X118995600Y-107725001D03*
X118995600Y-107075002D03*
%TD*%
D15*
%TO.C,C11*%
X94400000Y-61277800D03*
X94400000Y-63075600D03*
%TD*%
D14*
%TO.C,R5*%
X72759900Y-49160100D03*
X72759900Y-47359900D03*
%TD*%
D12*
%TO.C,U12*%
X113204400Y-94375000D03*
X113204400Y-95025001D03*
X113204400Y-95674999D03*
X113204400Y-96325001D03*
X113204400Y-96974999D03*
X113204400Y-97624998D03*
X113204400Y-98274999D03*
X113204400Y-98924998D03*
X113204400Y-99574999D03*
X113204400Y-100224998D03*
X118995600Y-100225000D03*
X118995600Y-99575002D03*
X118995600Y-98925001D03*
X118995600Y-98275002D03*
X118995600Y-97625001D03*
X118995600Y-96975002D03*
X118995600Y-96325001D03*
X118995600Y-95675002D03*
X118995600Y-95025001D03*
X118995600Y-94375002D03*
%TD*%
D10*
%TO.C,C16*%
X117741100Y-66820000D03*
X119538900Y-66820000D03*
%TD*%
D15*
%TO.C,C2*%
X60200000Y-58898900D03*
X60200000Y-57101100D03*
%TD*%
D10*
%TO.C,C15*%
X116842200Y-54120000D03*
X118640000Y-54120000D03*
%TD*%
D14*
%TO.C,R6*%
X68600000Y-47359900D03*
X68600000Y-49160100D03*
%TD*%
%TO.C,R2*%
X81280000Y-49899900D03*
X81280000Y-51700100D03*
%TD*%
D19*
%TO.C,U3*%
X81373649Y-62745000D03*
X81373649Y-64015000D03*
X81373649Y-65285000D03*
X81373649Y-66555000D03*
X81373649Y-67825000D03*
X81373649Y-69095000D03*
X81373649Y-70365000D03*
X81373649Y-71635000D03*
X81373649Y-72905000D03*
X81373649Y-74175000D03*
X81373649Y-75445000D03*
X81373649Y-76715000D03*
X81373649Y-77985000D03*
X81373649Y-79255000D03*
X90626351Y-79255000D03*
X90626351Y-77985000D03*
X90626351Y-76715000D03*
X90626351Y-75445000D03*
X90626351Y-74175000D03*
X90626351Y-72905000D03*
X90626351Y-71635000D03*
X90626351Y-70365000D03*
X90626351Y-69095000D03*
X90626351Y-67825000D03*
X90626351Y-66555000D03*
X90626351Y-65285000D03*
X90626351Y-64015000D03*
X90626351Y-62745000D03*
%TD*%
D10*
%TO.C,C19*%
X135698900Y-62000000D03*
X133901100Y-62000000D03*
%TD*%
D14*
%TO.C,R12*%
X87200000Y-115325600D03*
X87200000Y-113525400D03*
%TD*%
D12*
%TO.C,U8*%
X113204400Y-43575000D03*
X113204400Y-44225001D03*
X113204400Y-44874999D03*
X113204400Y-45525001D03*
X113204400Y-46174999D03*
X113204400Y-46824998D03*
X113204400Y-47474999D03*
X113204400Y-48124998D03*
X113204400Y-48774999D03*
X113204400Y-49424998D03*
X118995600Y-49425000D03*
X118995600Y-48775002D03*
X118995600Y-48125001D03*
X118995600Y-47475002D03*
X118995600Y-46825001D03*
X118995600Y-46175002D03*
X118995600Y-45525001D03*
X118995600Y-44875002D03*
X118995600Y-44225001D03*
X118995600Y-43575002D03*
%TD*%
D14*
%TO.C,R10*%
X71600000Y-115525600D03*
X71600000Y-113725400D03*
%TD*%
D15*
%TO.C,C9*%
X61600000Y-75698900D03*
X61600000Y-73901100D03*
%TD*%
D14*
%TO.C,R14*%
X64800000Y-115500100D03*
X64800000Y-113699900D03*
%TD*%
D20*
%TO.C,U4*%
X71200000Y-73905800D03*
X71200000Y-82894200D03*
%TD*%
D14*
%TO.C,R3*%
X63200000Y-59125600D03*
X63200000Y-57325400D03*
%TD*%
D15*
%TO.C,C5*%
X78400000Y-77901100D03*
X78400000Y-79698900D03*
%TD*%
D10*
%TO.C,0.1uF1*%
X118640000Y-79520000D03*
X120437800Y-79520000D03*
%TD*%
D15*
%TO.C,C6*%
X77600000Y-66098900D03*
X77600000Y-64301100D03*
%TD*%
D14*
%TO.C,R13*%
X94600000Y-115325600D03*
X94600000Y-113525400D03*
%TD*%
D11*
%TO.C,U15*%
X128574500Y-68215100D03*
X128574500Y-69485100D03*
X128574500Y-70755100D03*
X128574500Y-72025100D03*
X128574500Y-73295100D03*
X128574500Y-74565100D03*
X128574500Y-75835100D03*
X128574500Y-77105100D03*
X133298900Y-77105100D03*
X133298900Y-75835100D03*
X133298900Y-74565100D03*
X133298900Y-73295100D03*
X133298900Y-72025100D03*
X133298900Y-70755100D03*
X133298900Y-69485100D03*
X133298900Y-68215100D03*
%TD*%
%TO.C,U17*%
X128574500Y-101235100D03*
X128574500Y-102505100D03*
X128574500Y-103775100D03*
X128574500Y-105045100D03*
X128574500Y-106315100D03*
X128574500Y-107585100D03*
X128574500Y-108855100D03*
X128574500Y-110125100D03*
X133298900Y-110125100D03*
X133298900Y-108855100D03*
X133298900Y-107585100D03*
X133298900Y-106315100D03*
X133298900Y-105045100D03*
X133298900Y-103775100D03*
X133298900Y-102505100D03*
X133298900Y-101235100D03*
%TD*%
D10*
%TO.C,C8*%
X69000000Y-44000000D03*
X67202200Y-44000000D03*
%TD*%
M02*
