%TF.GenerationSoftware,KiCad,Pcbnew,(6.0.2)*%
%TF.CreationDate,2023-01-31T11:03:36+01:00*%
%TF.ProjectId,schematic,73636865-6d61-4746-9963-2e6b69636164,rev?*%
%TF.SameCoordinates,Original*%
%TF.FileFunction,Soldermask,Bot*%
%TF.FilePolarity,Negative*%
%FSLAX46Y46*%
G04 Gerber Fmt 4.6, Leading zero omitted, Abs format (unit mm)*
G04 Created by KiCad (PCBNEW (6.0.2)) date 2023-01-31 11:03:36*
%MOMM*%
%LPD*%
G01*
G04 APERTURE LIST*
%ADD10R,0.850000X0.850000*%
%ADD11O,0.850000X0.850000*%
%ADD12R,2.000000X2.000000*%
%ADD13R,1.879600X1.879600*%
%ADD14C,1.879600*%
%ADD15C,3.500000*%
%ADD16R,1.400000X1.400000*%
%ADD17C,1.400000*%
%ADD18C,3.000000*%
G04 APERTURE END LIST*
D10*
%TO.C,SW_1*%
X74340000Y-120220000D03*
%TD*%
%TO.C,TP1*%
X50000000Y-50400000D03*
%TD*%
%TO.C,TP1.1*%
X74340000Y-112600000D03*
%TD*%
%TO.C,J1*%
X76200000Y-55880000D03*
D11*
X78740000Y-55880000D03*
X81280000Y-55880000D03*
X83820000Y-55880000D03*
X86360000Y-55880000D03*
%TD*%
D12*
%TO.C,J11*%
X137880000Y-119000000D03*
D11*
X135340000Y-119000000D03*
X132800000Y-119000000D03*
X130260000Y-119000000D03*
X127720000Y-119000000D03*
%TD*%
D10*
%TO.C,TP6*%
X107800000Y-118600000D03*
%TD*%
%TO.C,TP2*%
X71600000Y-53200000D03*
%TD*%
%TO.C,J5*%
X73660000Y-60600000D03*
D11*
X76200000Y-60600000D03*
X78740000Y-60600000D03*
%TD*%
D12*
%TO.C,J9*%
X142800000Y-77902500D03*
D11*
X142800000Y-80442500D03*
X142800000Y-82982500D03*
X142800000Y-85522500D03*
X142800000Y-88062500D03*
%TD*%
D13*
%TO.C,U2*%
X62200000Y-46600000D03*
D14*
X62200000Y-44060000D03*
X62200000Y-41520000D03*
%TD*%
D10*
%TO.C,TP3*%
X78000000Y-47400000D03*
%TD*%
%TO.C,TP9*%
X117400000Y-118600000D03*
%TD*%
%TO.C,J15*%
X54000000Y-78000000D03*
%TD*%
%TO.C,TP4.1*%
X97200000Y-112600000D03*
%TD*%
%TO.C,J3*%
X68600000Y-53860000D03*
D11*
X68600000Y-56400000D03*
X68600000Y-58940000D03*
%TD*%
D10*
%TO.C,SW_2*%
X81960000Y-120220000D03*
%TD*%
%TO.C,SW_3*%
X89580000Y-120220000D03*
%TD*%
D15*
%TO.C,H1*%
X53200000Y-42600000D03*
%TD*%
D10*
%TO.C,TP11*%
X123600000Y-118600000D03*
%TD*%
%TO.C,J14*%
X54000000Y-74000000D03*
%TD*%
D12*
%TO.C,J7*%
X142740000Y-50702500D03*
D11*
X142740000Y-53242500D03*
X142740000Y-55782500D03*
X142740000Y-58322500D03*
X142740000Y-60862500D03*
%TD*%
D10*
%TO.C,SW_5*%
X68000000Y-119800000D03*
%TD*%
D13*
%TO.C,U1*%
X54600000Y-55400000D03*
D14*
X54600000Y-52860000D03*
X54600000Y-50320000D03*
%TD*%
D10*
%TO.C,TP2.1*%
X81960000Y-112600000D03*
%TD*%
%TO.C,TP5.1*%
X68000000Y-112600000D03*
%TD*%
%TO.C,SW_4*%
X97200000Y-120220000D03*
%TD*%
D15*
%TO.C,H2*%
X140300000Y-43000000D03*
%TD*%
D12*
%TO.C,J2*%
X74000000Y-39600000D03*
%TD*%
D15*
%TO.C,H4*%
X53600000Y-124400000D03*
%TD*%
D16*
%TO.C,UART*%
X59882500Y-98250000D03*
D17*
X59882500Y-95750000D03*
X56682500Y-95750000D03*
X56682500Y-98250000D03*
D18*
X57172500Y-103020000D03*
X57172500Y-90980000D03*
%TD*%
D10*
%TO.C,J13*%
X78600000Y-39600000D03*
%TD*%
%TO.C,TP10*%
X120600000Y-118600000D03*
%TD*%
D12*
%TO.C,J12*%
X142800000Y-91902500D03*
D11*
X142800000Y-94442500D03*
X142800000Y-96982500D03*
X142800000Y-99522500D03*
X142800000Y-102062500D03*
%TD*%
D10*
%TO.C,TP5*%
X67200000Y-70200000D03*
%TD*%
D15*
%TO.C,H3*%
X141600000Y-124600000D03*
%TD*%
D10*
%TO.C,TP7*%
X111200000Y-118600000D03*
%TD*%
D12*
%TO.C,J8*%
X142800000Y-64102500D03*
D11*
X142800000Y-66642500D03*
X142800000Y-69182500D03*
X142800000Y-71722500D03*
X142800000Y-74262500D03*
%TD*%
D12*
%TO.C,J10*%
X142800000Y-106190000D03*
D11*
X142800000Y-108730000D03*
X142800000Y-111270000D03*
X142800000Y-113810000D03*
X142800000Y-116350000D03*
%TD*%
D10*
%TO.C,TP4*%
X70000000Y-70200000D03*
%TD*%
%TO.C,J16*%
X125000000Y-112200000D03*
%TD*%
%TO.C,TP3.1*%
X89580000Y-112600000D03*
%TD*%
%TO.C,TP8*%
X114400000Y-118600000D03*
%TD*%
%TO.C,J4*%
X89120000Y-55200000D03*
D11*
X91660000Y-55200000D03*
X94200000Y-55200000D03*
X96740000Y-55200000D03*
X99280000Y-55200000D03*
%TD*%
M02*
